<svg width="26" height="30" viewBox="0 0 26 30" fill="none" xmlns="http://www.w3.org/2000/svg">
<path d="M0.0192261 27.1875C0.0192261 28.7402 1.26515 30 2.80082 30H23.1992C24.7348 30 25.9808 28.7402 25.9808 27.1875V11.25H0.0192261V27.1875ZM18.5632 15.7031C18.5632 15.3164 18.8761 15 19.2586 15H21.5766C21.959 15 22.272 15.3164 22.272 15.7031V18.0469C22.272 18.4336 21.959 18.75 21.5766 18.75H19.2586C18.8761 18.75 18.5632 18.4336 18.5632 18.0469V15.7031ZM18.5632 23.2031C18.5632 22.8164 18.8761 22.5 19.2586 22.5H21.5766C21.959 22.5 22.272 22.8164 22.272 23.2031V25.5469C22.272 25.9336 21.959 26.25 21.5766 26.25H19.2586C18.8761 26.25 18.5632 25.9336 18.5632 25.5469V23.2031ZM11.1456 15.7031C11.1456 15.3164 11.4585 15 11.841 15H14.159C14.5415 15 14.8544 15.3164 14.8544 15.7031V18.0469C14.8544 18.4336 14.5415 18.75 14.159 18.75H11.841C11.4585 18.75 11.1456 18.4336 11.1456 18.0469V15.7031ZM11.1456 23.2031C11.1456 22.8164 11.4585 22.5 11.841 22.5H14.159C14.5415 22.5 14.8544 22.8164 14.8544 23.2031V25.5469C14.8544 25.9336 14.5415 26.25 14.159 26.25H11.841C11.4585 26.25 11.1456 25.9336 11.1456 25.5469V23.2031ZM3.72802 15.7031C3.72802 15.3164 4.04095 15 4.42342 15H6.74141C7.12388 15 7.43681 15.3164 7.43681 15.7031V18.0469C7.43681 18.4336 7.12388 18.75 6.74141 18.75H4.42342C4.04095 18.75 3.72802 18.4336 3.72802 18.0469V15.7031ZM3.72802 23.2031C3.72802 22.8164 4.04095 22.5 4.42342 22.5H6.74141C7.12388 22.5 7.43681 22.8164 7.43681 23.2031V25.5469C7.43681 25.9336 7.12388 26.25 6.74141 26.25H4.42342C4.04095 26.25 3.72802 25.9336 3.72802 25.5469V23.2031ZM23.1992 3.75H20.4176V0.9375C20.4176 0.421875 20.0003 0 19.4904 0H17.636C17.126 0 16.7088 0.421875 16.7088 0.9375V3.75H9.2912V0.9375C9.2912 0.421875 8.87397 0 8.36401 0H6.50961C5.99965 0 5.58241 0.421875 5.58241 0.9375V3.75H2.80082C1.26515 3.75 0.0192261 5.00977 0.0192261 6.5625V9.375H25.9808V6.5625C25.9808 5.00977 24.7348 3.75 23.1992 3.75Z" fill="#E5E5E5"/>
</svg>
