<svg width="489" height="637" viewBox="0 0 489 637" fill="none" xmlns="http://www.w3.org/2000/svg">
<path d="M420.161 322.111C435.732 337.483 449.507 351.458 463.681 364.833C465.877 366.83 470.469 367.029 473.863 367.029C494.225 367.229 514.389 366.63 534.751 367.429C539.942 367.628 546.33 370.224 550.123 373.617C561.702 383.998 572.482 395.378 583.462 406.557C587.056 410.35 590.25 412.546 596.239 410.949C605.622 408.553 614.007 411.748 619.796 419.933C625.585 427.918 625.985 436.702 621.193 445.286C616.203 453.871 608.417 457.065 598.635 457.065C594.243 457.065 589.052 458.862 585.858 461.856C575.078 471.638 565.296 482.618 554.515 492.6C550.922 495.794 545.532 498.19 540.94 498.389C523.372 498.988 505.605 498.19 488.037 498.988C483.046 499.188 478.255 502.781 473.264 504.977C473.064 505.177 472.864 505.377 472.465 505.576C462.284 515.957 447.91 524.941 442.919 537.318C437.729 550.893 441.122 568.062 441.322 583.634C441.322 587.027 443.518 591.02 446.113 593.416C457.493 603.797 459.09 618.37 449.507 628.751C440.524 638.533 424.752 638.733 415.569 629.35C405.787 619.169 406.985 604.595 417.965 594.015C420.76 591.22 422.956 586.428 423.155 582.436C423.754 567.064 422.956 551.892 423.555 536.52C423.754 532.327 425.751 527.536 428.545 524.542C440.923 511.565 453.5 498.789 466.676 486.411C469.87 483.417 475.06 481.221 479.452 481.021C497.02 480.422 514.788 481.221 532.356 480.622C537.347 480.422 542.936 477.827 546.929 474.433C554.715 467.845 561.702 460.059 568.889 452.873C581.666 440.296 581.865 430.314 569.089 417.936C558.308 407.156 548.925 392.583 535.75 386.993C522.574 381.603 505.605 386.394 490.432 384.797C472.266 382.801 458.091 387.592 447.511 402.564C445.315 405.759 442.121 408.554 439.126 411.149C433.736 415.541 431.141 420.332 431.939 428.118C433.337 441.493 421.558 452.673 408.382 452.274C395.007 451.874 384.626 440.495 385.424 427.319C386.422 413.744 397.602 404.561 411.377 405.16C415.37 405.359 420.161 403.762 423.355 401.167C432.339 393.781 440.524 385.595 449.906 376.612C435.133 362.238 421.958 349.062 408.382 336.485C406.386 334.489 402.393 333.69 399.399 333.69C379.036 333.491 358.873 333.291 338.51 333.69C335.116 333.69 331.123 335.886 328.728 338.482C318.546 349.861 303.574 351.458 293.392 341.875C283.61 332.692 283.61 317.121 292.993 307.937C303.374 297.756 317.948 299.353 328.927 311.331C331.123 313.727 334.917 315.524 337.911 315.723C357.276 316.122 376.441 316.122 395.805 315.723C399.598 315.723 403.391 312.729 407.184 311.132C407.783 310.932 408.183 310.333 408.582 309.734C424.353 286.976 445.714 279.39 472.864 282.983C488.636 284.979 504.806 283.781 520.777 283.183C525.568 282.983 530.759 280.388 534.552 277.393C542.138 271.005 548.726 263.419 555.913 256.431C562.9 249.444 569.488 243.455 568.29 231.477C567.092 219.1 579.869 210.116 592.646 210.915C605.422 211.713 614.605 221.895 614.206 234.871C613.807 247.648 603.626 258.627 591.049 257.03C582.265 256.032 577.473 259.626 572.283 265.016C562.101 275.596 551.92 285.977 541.14 295.76C537.946 298.754 532.555 300.95 528.163 300.95C504.606 301.549 480.85 301.749 457.293 300.95C446.313 300.551 438.128 303.146 431.54 312.13C429.544 315.324 425.351 317.919 420.161 322.111Z" fill="#14213D" fill-opacity="0.1"/>
<path d="M311.959 17.6677C265.044 17.6677 218.13 17.4681 171.216 17.8674C166.025 17.8674 159.637 20.4626 155.844 24.056C133.285 45.8163 111.325 67.9758 89.5649 90.3349C86.3708 93.5291 84.1748 99.3185 84.1748 103.91C83.9751 118.883 74.9916 129.264 61.0171 129.463C47.2423 129.663 37.0609 118.883 37.4601 105.308C37.8594 91.3331 48.8393 82.5492 63.812 82.7488C67.8047 82.7488 72.9952 81.1517 75.7901 78.3568C99.946 54.6002 123.902 30.0451 148.457 6.28851C152.051 2.89471 158.04 0.299453 163.031 0.299453C262.449 -0.0998176 361.867 -0.0998176 461.485 0.299453C466.077 0.299453 471.866 2.69508 475.26 5.88924C493.028 22.8582 509.997 40.6258 527.764 57.7944C530.759 60.7889 536.149 62.7853 540.341 62.7853C555.114 62.5856 566.094 71.7689 566.294 85.7433C566.693 99.1189 555.913 109.899 542.338 109.7C528.163 109.5 518.781 97.9211 519.579 82.7488C519.779 79.355 518.381 74.963 515.986 72.5674C499.815 55.798 483.445 39.2283 466.476 23.2575C463.282 20.263 457.892 18.4663 453.3 18.4663C406.386 17.6677 359.072 17.6677 311.959 17.6677Z" fill="#14213D" fill-opacity="0.1"/>
<path d="M692.463 282.384C692.463 302.746 692.064 322.91 692.663 343.272C692.862 350.659 690.866 356.049 685.276 360.641C681.084 364.034 677.091 367.628 674.097 372.02C671.502 376.013 668.906 381.003 668.906 385.595C668.707 400.168 659.124 410.949 645.349 410.949C631.375 410.949 621.593 400.168 622.192 385.395C622.591 373.617 613.607 364.833 601.629 365.232C587.455 365.632 576.874 356.049 576.475 342.673C576.076 329.098 586.657 318.518 600.232 318.717C613.607 318.917 624.587 329.697 622.791 343.672C621.193 355.051 629.378 358.844 635.368 364.234C639.36 367.828 656.529 363.436 661.12 359.842C671.901 351.258 675.494 341.076 675.095 327.102C673.897 293.962 675.095 260.623 674.496 227.284C674.496 222.094 671.701 215.705 668.108 211.912C650.54 193.346 632.373 175.379 613.807 157.612C610.413 154.417 604.823 152.221 600.032 151.822C586.856 151.024 573.481 151.623 560.105 151.623C550.323 151.623 541.539 150.824 533.753 160.606C526.167 170.189 509.797 167.793 501.812 158.61C493.427 149.027 494.225 133.855 503.808 125.271C513.191 117.086 528.363 117.086 535.949 126.868C540.74 133.056 545.931 134.055 552.918 134.055C571.285 133.855 589.451 133.655 607.818 134.254C612.21 134.454 617.6 136.45 620.794 139.644C643.153 161.405 665.313 183.564 687.073 205.923C690.068 209.118 692.264 214.508 692.264 218.9C692.863 239.861 692.463 261.023 692.463 282.384Z" fill="#14213D" fill-opacity="0.1"/>
<path d="M193.176 397.973C161.234 406.557 140.671 390.187 120.109 368.027C88.1674 333.291 53.6306 300.95 20.4911 267.411C17.2969 264.017 14.9013 258.428 14.7017 253.636C14.1028 236.667 14.7017 219.698 14.1028 202.729C13.9031 198.537 11.7072 193.346 8.71263 190.352C-1.86804 180.37 -3.06585 165.996 6.51664 155.615C15.5002 146.033 31.2714 145.833 40.255 155.416C50.0371 165.597 48.8393 180.171 38.2586 190.152C35.0645 193.147 32.4692 198.138 32.2696 202.33C31.471 216.903 31.6707 231.676 32.2696 246.25C32.4692 250.642 34.2659 256.032 37.2605 259.226C75.3908 297.756 113.521 336.086 152.25 374.216C155.844 377.61 161.833 379.806 166.824 380.005C186.388 380.604 205.952 380.205 225.716 380.405C231.106 380.405 234.7 379.406 238.293 374.615C246.877 363.236 262.649 362.438 272.431 371.82C282.013 381.004 282.013 396.375 272.63 405.559C263.048 415.141 247.876 414.942 239.092 404.161C234.899 399.17 230.907 397.573 224.718 397.773C214.337 398.172 203.756 397.973 193.176 397.973Z" fill="#14213D" fill-opacity="0.1"/>
<path d="M298.982 87.7398C288.601 84.7453 279.618 90.335 272.032 99.7179C268.039 104.509 263.248 108.701 258.656 113.093C252.467 118.883 247.876 124.073 248.874 134.255C250.271 147.031 237.894 157.213 224.918 156.614C211.542 155.815 202.159 145.434 202.758 132.059C203.357 118.883 214.137 108.502 227.114 110.099C234.101 110.897 238.094 108.701 242.486 104.11C251.669 94.5274 260.852 84.9449 270.834 76.1609C274.427 72.9668 279.817 70.9704 284.609 70.3715C291.396 69.3734 298.583 70.1719 305.57 70.1719C313.955 70.1719 321.741 70.3715 328.728 62.7854C337.113 53.8018 352.684 56.3971 360.67 65.9796C368.655 75.562 368.256 90.934 358.274 98.1208C352.085 102.712 350.488 107.703 351.486 114.092C355.08 135.852 347.893 152.821 329.926 165.398C326.532 167.794 323.937 171.587 320.743 174.381C315.951 178.574 313.755 182.566 314.554 189.753C316.151 203.129 304.772 214.109 291.396 214.309C278.619 214.309 267.64 203.528 267.64 190.951C267.839 177.376 279.418 166.196 293.193 167.794C299.781 168.592 303.774 166.795 307.766 162.204C312.358 157.013 317.149 151.623 322.539 147.431C331.323 140.443 334.318 132.059 333.918 120.68C333.12 96.3241 325.135 87.7398 298.982 87.7398Z" fill="#14213D" fill-opacity="0.1"/>
<path d="M433.736 221.695C408.782 215.506 390.415 225.887 376.441 245.452C362.466 264.816 344.299 271.005 320.742 269.009C296.587 267.012 272.231 268.609 247.876 268.609C234.899 268.609 223.121 280.987 223.52 293.564C223.919 307.738 213.139 318.917 199.564 318.318C185.989 317.919 176.206 306.939 177.005 293.164C177.804 279.789 189.183 270.805 202.958 271.205C207.15 271.404 213.139 269.608 215.335 266.613C225.716 253.237 238.493 249.444 255.062 250.243C281.614 251.64 308.165 250.442 334.916 250.642C342.303 250.642 348.092 249.045 353.283 243.256C364.063 231.477 375.442 220.298 387.221 209.517C390.415 206.523 395.805 204.327 400.197 204.127C419.761 203.528 439.525 204.127 459.09 203.528C463.681 203.329 469.071 200.933 472.266 197.739C482.247 187.557 497.22 186.36 507.002 195.742C516.585 205.125 516.585 220.497 506.802 229.68C496.821 239.063 481.848 237.666 472.066 227.484C469.071 224.49 464.08 222.294 459.888 221.895C451.104 221.096 442.52 221.695 433.736 221.695Z" fill="#14213D" fill-opacity="0.1"/>
<path d="M306.968 449.479C291.995 452.473 280.815 442.891 280.217 429.315C279.618 416.139 290.398 404.561 303.574 404.76C316.949 404.76 327.929 415.541 326.732 429.315C326.133 436.702 328.728 440.894 333.519 445.685C348.492 460.259 363.265 475.231 377.838 490.404C380.433 493.199 382.23 497.79 382.43 501.583C383.029 514.16 382.629 526.937 382.629 539.514C382.629 549.296 381.631 558.08 391.413 565.866C401.395 573.851 398.401 590.022 388.219 598.406C378.637 606.192 364.263 604.994 355.878 595.412C347.693 586.029 347.893 570.857 357.675 563.271C363.864 558.479 365.061 553.289 364.862 546.302C364.463 531.728 368.256 515.558 363.065 502.981C357.875 490.404 343.701 481.62 333.519 471.239C328.728 466.248 323.937 461.057 318.546 456.466C315.352 453.471 310.96 451.675 306.968 449.479Z" fill="#14213D" fill-opacity="0.1"/>
<path d="M145.662 160.207C146.461 150.625 144.664 143.039 136.479 135.852C127.296 127.866 129.492 111.896 138.675 103.711C148.058 95.5256 162.432 95.9248 171.216 104.908C180 113.892 180.798 129.264 171.216 137.05C163.829 143.039 162.232 149.627 163.43 157.612C166.424 176.777 160.036 191.55 144.664 203.129C136.679 209.118 130.29 215.906 131.488 228.682C132.686 240.66 120.508 249.644 108.131 249.245C95.3543 248.845 85.5721 238.664 85.5721 226.087C85.5721 213.71 94.7554 202.131 106.933 203.129C127.496 204.726 133.285 186.958 144.265 176.577C147.259 173.783 145.263 165.797 145.662 160.207Z" fill="#14213D" fill-opacity="0.1"/>
<path d="M421.359 123.674C424.154 127.866 426.35 132.857 429.943 136.251C439.725 145.634 440.923 160.407 432.139 170.189C423.355 179.771 407.384 180.171 398.201 170.988C388.818 161.605 388.618 145.834 399.199 137.449C405.388 132.658 406.985 127.267 406.186 120.48C404.789 109.899 407.584 101.315 416.368 94.128C418.763 92.1316 419.562 86.7415 419.362 82.9484C418.963 71.1699 426.35 60.19 437.729 57.5947C449.308 54.9995 460.487 60.9885 465.079 72.3678C469.271 82.9484 465.278 95.1262 455.097 100.716C451.504 102.712 446.912 103.71 442.72 103.71C427.947 104.11 423.555 108.302 421.359 123.674Z" fill="#14213D" fill-opacity="0.1"/>
</svg>
