<svg width="18" height="30" viewBox="0 0 18 30" fill="none" xmlns="http://www.w3.org/2000/svg">
<path d="M12.82 13.6758L6.49188 11.8242C5.75946 11.6133 5.2497 10.9277 5.2497 10.166C5.2497 9.21094 6.02313 8.4375 6.97821 8.4375H10.863C11.5778 8.4375 12.2809 8.6543 12.8669 9.05273C13.2243 9.29297 13.7048 9.23438 14.0095 8.93555L16.0485 6.94336C16.4645 6.53906 16.4059 5.86523 15.9431 5.50781C14.5075 4.38281 12.7145 3.75586 10.8747 3.75V0.9375C10.8747 0.421875 10.4528 0 9.9372 0H8.0622C7.54657 0 7.1247 0.421875 7.1247 0.9375V3.75H6.97821C3.24579 3.75 0.24579 6.95508 0.591493 10.7578C0.837587 13.459 2.90009 15.6563 5.50165 16.418L11.5075 18.1758C12.2399 18.3926 12.7497 19.0723 12.7497 19.834C12.7497 20.7891 11.9763 21.5625 11.0212 21.5625H7.13642C6.42157 21.5625 5.71845 21.3457 5.13251 20.9473C4.77509 20.707 4.29462 20.7656 3.98993 21.0645L1.95087 23.0566C1.53485 23.4609 1.59345 24.1348 2.05634 24.4922C3.49188 25.6172 5.28485 26.2441 7.1247 26.25V29.0625C7.1247 29.5781 7.54657 30 8.0622 30H9.9372C10.4528 30 10.8747 29.5781 10.8747 29.0625V26.2383C13.6052 26.1855 16.1657 24.5625 17.0681 21.9785C18.3278 18.3691 16.2126 14.666 12.82 13.6758Z" fill="#E5E5E5"/>
</svg>
