<svg width="28" height="30" viewBox="0 0 28 30" fill="none" xmlns="http://www.w3.org/2000/svg">
<path d="M26.4219 28.125H25.25V1.40625C25.25 0.62959 24.6204 0 23.8438 0H4.15625C3.37959 0 2.75 0.62959 2.75 1.40625V28.125H1.57812C1.18982 28.125 0.875 28.4398 0.875 28.8281V30H27.125V28.8281C27.125 28.4398 26.8102 28.125 26.4219 28.125ZM8.375 4.45312C8.375 4.06482 8.68982 3.75 9.07812 3.75H11.4219C11.8102 3.75 12.125 4.06482 12.125 4.45312V6.79688C12.125 7.18518 11.8102 7.5 11.4219 7.5H9.07812C8.68982 7.5 8.375 7.18518 8.375 6.79688V4.45312ZM8.375 10.0781C8.375 9.68982 8.68982 9.375 9.07812 9.375H11.4219C11.8102 9.375 12.125 9.68982 12.125 10.0781V12.4219C12.125 12.8102 11.8102 13.125 11.4219 13.125H9.07812C8.68982 13.125 8.375 12.8102 8.375 12.4219V10.0781ZM11.4219 18.75H9.07812C8.68982 18.75 8.375 18.4352 8.375 18.0469V15.7031C8.375 15.3148 8.68982 15 9.07812 15H11.4219C11.8102 15 12.125 15.3148 12.125 15.7031V18.0469C12.125 18.4352 11.8102 18.75 11.4219 18.75ZM15.875 28.125H12.125V23.2031C12.125 22.8148 12.4398 22.5 12.8281 22.5H15.1719C15.5602 22.5 15.875 22.8148 15.875 23.2031V28.125ZM19.625 18.0469C19.625 18.4352 19.3102 18.75 18.9219 18.75H16.5781C16.1898 18.75 15.875 18.4352 15.875 18.0469V15.7031C15.875 15.3148 16.1898 15 16.5781 15H18.9219C19.3102 15 19.625 15.3148 19.625 15.7031V18.0469ZM19.625 12.4219C19.625 12.8102 19.3102 13.125 18.9219 13.125H16.5781C16.1898 13.125 15.875 12.8102 15.875 12.4219V10.0781C15.875 9.68982 16.1898 9.375 16.5781 9.375H18.9219C19.3102 9.375 19.625 9.68982 19.625 10.0781V12.4219ZM19.625 6.79688C19.625 7.18518 19.3102 7.5 18.9219 7.5H16.5781C16.1898 7.5 15.875 7.18518 15.875 6.79688V4.45312C15.875 4.06482 16.1898 3.75 16.5781 3.75H18.9219C19.3102 3.75 19.625 4.06482 19.625 4.45312V6.79688Z" fill="#E5E5E5"/>
</svg>
