<svg xmlns="http://www.w3.org/2000/svg" version="1.1" xmlns:xlink="http://www.w3.org/1999/xlink" xmlns:svgjs="http://svgjs.com/svgjs" width="128" height="117"><svg width="128" height="117" viewBox="0 0 128 117" fill="none" xmlns="http://www.w3.org/2000/svg">
<path d="M77.2314 59.2086C80.0937 62.0342 82.6257 64.6029 85.2311 67.0615C85.6348 67.4285 86.4788 67.4651 87.1026 67.4651C90.8456 67.5018 94.5518 67.3918 98.2948 67.5386C99.2489 67.5752 100.423 68.0523 101.12 68.6761C103.249 70.5843 105.23 72.6759 107.249 74.7309C107.909 75.4281 108.496 75.8318 109.597 75.5382C111.322 75.0979 112.863 75.685 113.927 77.1895C114.991 78.6574 115.065 80.272 114.184 81.8499C113.267 83.4278 111.836 84.0149 110.037 84.0149C109.23 84.0149 108.276 84.3452 107.689 84.8956C105.707 86.6937 103.909 88.712 101.928 90.5468C101.267 91.1339 100.276 91.5743 99.4324 91.611C96.2031 91.7211 92.9372 91.5743 89.708 91.721C88.7906 91.7577 87.9099 92.4183 86.9925 92.8219C86.9558 92.8586 86.9191 92.8953 86.8457 92.932C84.9743 94.8402 82.3322 96.4915 81.4148 98.7666C80.4607 101.262 81.0845 104.418 81.1212 107.28C81.1212 107.904 81.5248 108.638 82.0019 109.078C84.0935 110.986 84.3871 113.665 82.6257 115.573C80.9744 117.371 78.0754 117.408 76.3874 115.683C74.5894 113.812 74.8095 111.133 76.8278 109.188C77.3415 108.674 77.7452 107.794 77.7819 107.06C77.892 104.234 77.7452 101.445 77.8553 98.6199C77.892 97.8492 78.2589 96.9685 78.7727 96.4181C81.0478 94.0329 83.3596 91.6844 85.7816 89.4092C86.3687 88.8588 87.3228 88.4551 88.1301 88.4184C91.3593 88.3083 94.6252 88.4551 97.8545 88.345C98.7719 88.3083 99.7993 87.8313 100.533 87.2075C101.964 85.9965 103.249 84.5654 104.57 83.2443C106.918 80.9325 106.955 79.0977 104.606 76.8226C102.625 74.841 100.9 72.1622 98.4783 71.1347C96.0564 70.1439 92.9372 71.0246 90.1484 70.7311C86.809 70.3641 84.2036 71.2448 82.2588 73.997C81.8551 74.5841 81.268 75.0979 80.7175 75.5749C79.7268 76.3822 79.2497 77.2629 79.3965 78.6941C79.6534 81.1527 77.4883 83.2076 75.0664 83.1342C72.6078 83.0608 70.6996 80.9692 70.8464 78.5473C71.0299 76.052 73.0848 74.364 75.6168 74.474C76.3508 74.5107 77.2314 74.2172 77.8186 73.7401C79.4699 72.3824 80.9744 70.8779 82.6991 69.2265C79.9836 66.5845 77.5617 64.1625 75.0664 61.8507C74.6994 61.4837 73.9655 61.337 73.4151 61.337C69.6721 61.3003 65.9659 61.2636 62.2229 61.337C61.5991 61.337 60.8651 61.7406 60.4248 62.2177C58.5533 64.3093 55.8011 64.6029 53.9296 62.8415C52.1315 61.1535 52.1316 58.2912 53.8563 56.6032C55.7644 54.7317 58.4432 55.0253 60.4615 57.227C60.8651 57.6674 61.5624 57.9976 62.1128 58.0343C65.6723 58.1077 69.1951 58.1077 72.7546 58.0343C73.4518 58.0343 74.149 57.4839 74.8462 57.1903C74.9563 57.1536 75.0297 57.0436 75.1031 56.9335C78.0021 52.7502 81.9285 51.3557 86.9191 52.0162C89.8181 52.3832 92.7904 52.163 95.7261 52.0529C96.6068 52.0162 97.5609 51.5392 98.2581 50.9888C99.6526 49.8145 100.864 48.4201 102.185 47.1357C103.469 45.8514 104.68 44.7505 104.46 42.5487C104.24 40.2736 106.588 38.6223 108.937 38.7691C111.285 38.9159 112.973 40.7873 112.9 43.1726C112.826 45.5211 110.955 47.5394 108.643 47.2458C107.028 47.0623 106.148 47.7228 105.194 48.7136C103.322 50.6585 101.451 52.5667 99.4691 54.3648C98.8819 54.9152 97.8912 55.3189 97.0838 55.3189C92.7537 55.4289 88.387 55.4656 84.0569 55.3189C82.0386 55.2455 80.5341 55.7225 79.3231 57.3738C78.9561 57.961 78.1855 58.438 77.2314 59.2086Z" fill="#FCA311"></path>
<path d="M57.3424 3.24757C48.7189 3.24757 40.0954 3.21088 31.4719 3.28427C30.5178 3.28427 29.3435 3.76131 28.6463 4.42184C24.4997 8.42168 20.4631 12.4949 16.4633 16.6048C15.8762 17.192 15.4725 18.2561 15.4725 19.1001C15.4358 21.8523 13.7845 23.7605 11.2158 23.7972C8.68379 23.8339 6.81231 21.8523 6.8857 19.357C6.95909 16.7883 8.97736 15.1737 11.7295 15.2104C12.4635 15.2104 13.4175 14.9168 13.9313 14.4031C18.3715 10.0363 22.775 5.52271 27.2885 1.15592C27.9491 0.532088 29.0499 0.0550436 29.9673 0.0550436C48.2418 -0.0183479 66.5163 -0.0183479 84.8275 0.0550436C85.6715 0.0550436 86.7357 0.495393 87.3595 1.08252C90.6254 4.20166 93.7446 7.46759 97.0105 10.6234C97.5609 11.1739 98.5517 11.5408 99.3223 11.5408C102.038 11.5041 104.056 13.1921 104.093 15.7608C104.166 18.2194 102.185 20.201 99.6893 20.1643C97.0839 20.1276 95.3592 17.9993 95.506 15.2104C95.5427 14.5866 95.2858 13.7793 94.8454 13.3389C91.8731 10.2565 88.864 7.21072 85.7449 4.27506C85.1578 3.72462 84.167 3.39436 83.323 3.39436C74.6995 3.24757 66.0026 3.24757 57.3424 3.24757Z" fill="#FCA311"></path>
<path d="M127.284 51.9061C127.284 55.6491 127.211 59.3554 127.321 63.0983C127.358 64.4561 126.991 65.4469 125.963 66.2909C125.193 66.9147 124.459 67.5752 123.908 68.3825C123.431 69.1164 122.954 70.0338 122.954 70.8778C122.918 73.5566 121.156 75.5382 118.624 75.5382C116.056 75.5382 114.257 73.5566 114.368 70.8411C114.441 68.6761 112.79 67.0615 110.588 67.1349C107.982 67.2083 106.038 65.4469 105.964 62.9883C105.891 60.4929 107.836 58.5481 110.331 58.5848C112.79 58.6215 114.808 60.603 114.478 63.1717C114.184 65.2634 115.689 65.9606 116.789 66.9514C117.523 67.6119 120.679 66.8046 121.523 66.1441C123.505 64.5662 124.165 62.6947 124.092 60.126C123.872 54.0345 124.092 47.9063 123.982 41.7781C123.982 40.824 123.468 39.6498 122.808 38.9525C119.578 35.5398 116.239 32.2372 112.826 28.9713C112.203 28.3842 111.175 27.9805 110.294 27.9071C107.872 27.7603 105.414 27.8704 102.955 27.8704C101.157 27.8704 99.5425 27.7236 98.1113 29.5217C96.7169 31.2831 93.7079 30.8428 92.24 29.1548C90.6988 27.3934 90.8456 24.6045 92.607 23.0266C94.3317 21.5221 97.1206 21.5221 98.515 23.3201C99.3957 24.4577 100.35 24.6412 101.634 24.6412C105.01 24.6045 108.349 24.5678 111.725 24.6779C112.533 24.7146 113.524 25.0815 114.111 25.6687C118.221 29.6685 122.294 33.7417 126.294 37.8517C126.844 38.4388 127.248 39.4296 127.248 40.2369C127.358 44.0899 127.284 47.9797 127.284 51.9061Z" fill="#FCA311"></path>
<path d="M35.5084 73.153C29.6371 74.7309 25.8574 71.7219 22.0777 67.6486C16.2064 61.2636 9.85805 55.3189 3.76655 49.154C3.17942 48.5301 2.73907 47.5027 2.70238 46.622C2.59229 43.5028 2.70238 40.3837 2.59229 37.2645C2.55559 36.4939 2.15194 35.5398 1.6015 34.9894C-0.343372 33.1546 -0.563546 30.5125 1.19785 28.6043C2.84916 26.843 5.74812 26.8063 7.39943 28.5677C9.19753 30.4391 8.97735 33.1179 7.03247 34.9527C6.44534 35.5031 5.9683 36.4205 5.9316 37.1912C5.78482 39.8699 5.82152 42.5854 5.9316 45.2642C5.9683 46.0715 6.29856 47.0623 6.849 47.6494C13.8579 54.7317 20.8668 61.7773 27.9857 68.7862C28.6463 69.41 29.7471 69.8137 30.6645 69.8504C34.2607 69.9605 37.8569 69.8871 41.4898 69.9238C42.4806 69.9238 43.1411 69.7403 43.8016 68.8596C45.3795 66.7679 48.2785 66.6212 50.0766 68.3458C51.838 70.0339 51.838 72.8594 50.1133 74.5474C48.3519 76.3088 45.563 76.2721 43.9484 74.2906C43.1778 73.3732 42.4439 73.0796 41.3063 73.1163C39.3981 73.1897 37.4533 73.153 35.5084 73.153Z" fill="#FCA311"></path>
<path d="M54.9571 16.1278C53.049 15.5773 51.3977 16.6048 50.0032 18.3295C49.2693 19.2102 48.3886 19.9808 47.5446 20.7881C46.407 21.8523 45.563 22.8064 45.7465 24.6779C46.0034 27.0264 43.7282 28.8979 41.343 28.7878C38.8844 28.641 37.1597 26.7329 37.2698 24.2742C37.3799 21.8523 39.3614 19.9441 41.7467 20.2377C43.031 20.3845 43.7649 19.9808 44.5722 19.1368C46.2603 17.3754 47.9483 15.614 49.783 13.9994C50.4436 13.4123 51.4344 13.0453 52.315 12.9353C53.5627 12.7518 54.8837 12.8986 56.1681 12.8986C57.7093 12.8986 59.1405 12.9353 60.4248 11.5408C61.966 9.8895 64.8283 10.3665 66.2961 12.1279C67.764 13.8893 67.6906 16.7149 65.8558 18.036C64.7182 18.88 64.4246 19.7974 64.6081 20.9716C65.2686 24.9715 63.9476 28.0906 60.645 30.4024C60.0212 30.8428 59.5441 31.54 58.957 32.0537C58.0763 32.8244 57.6726 33.5583 57.8194 34.8793C58.113 37.3379 56.0213 39.3562 53.5627 39.3929C51.2142 39.3929 49.1959 37.4113 49.1959 35.0995C49.2326 32.6042 51.361 30.5492 53.893 30.8428C55.1039 30.9896 55.8378 30.6593 56.5718 29.8153C57.4158 28.8612 58.2965 27.8704 59.2872 27.0998C60.9019 25.8155 61.4523 24.2742 61.3789 22.1826C61.2321 17.7057 59.7643 16.1278 54.9571 16.1278Z" fill="#FCA311"></path>
<path d="M79.7268 40.7506C75.1398 39.6131 71.7638 41.5213 69.1951 45.1174C66.6264 48.6769 63.2871 49.8145 58.957 49.4475C54.5168 49.0806 50.0399 49.3742 45.563 49.3742C43.1778 49.3742 41.0127 51.6493 41.0861 53.9611C41.1595 56.5665 39.1779 58.6215 36.6826 58.5114C34.1873 58.438 32.3892 56.4197 32.536 53.8877C32.6828 51.4291 34.7745 49.7778 37.3065 49.8512C38.0771 49.8879 39.1779 49.5576 39.5816 49.0072C41.4898 46.5486 43.8383 45.8514 46.8841 45.9981C51.7646 46.255 56.6451 46.0348 61.5624 46.0715C62.9201 46.0715 63.9843 45.778 64.9384 44.7138C66.9199 42.5487 69.0116 40.4938 71.1766 38.5122C71.7638 37.9618 72.7546 37.5581 73.5619 37.5214C77.1581 37.4113 80.7909 37.5214 84.3871 37.4113C85.2311 37.3746 86.2219 36.9343 86.809 36.3472C88.6438 34.4757 91.396 34.2555 93.1941 35.9802C94.9555 37.7049 94.9555 40.5305 93.1574 42.2185C91.3226 43.9432 88.5704 43.6863 86.7723 41.8148C86.2219 41.2644 85.3045 40.8607 84.5339 40.7873C82.9193 40.6406 81.3414 40.7506 79.7268 40.7506Z" fill="#FCA311"></path>
<path d="M56.425 82.6205C53.6728 83.1709 51.6178 81.4095 51.5077 78.9142C51.3976 76.4923 53.3792 74.3639 55.8011 74.4006C58.2598 74.4006 60.278 76.3822 60.0578 78.9142C59.9478 80.272 60.4248 81.0426 61.3055 81.9233C64.0577 84.6021 66.7732 87.3542 69.452 90.1431C69.929 90.6569 70.2593 91.5009 70.296 92.1981C70.406 94.5099 70.3327 96.8584 70.3327 99.1703C70.3327 100.968 70.1492 102.583 71.9473 104.014C73.7821 105.482 73.2316 108.454 71.3601 109.996C69.5987 111.427 66.9566 111.206 65.4154 109.445C63.9109 107.72 63.9476 104.932 65.7457 103.537C66.8833 102.656 67.1034 101.702 67.0667 100.418C66.9933 97.7391 67.6906 94.7668 66.7365 92.455C65.7824 90.1431 63.177 88.5285 61.3055 86.6203C60.4248 85.7029 59.5441 84.7488 58.5533 83.9048C57.9662 83.3544 57.1589 83.0241 56.425 82.6205Z" fill="#FCA311"></path>
<path d="M26.7748 29.4483C26.9216 27.6869 26.5913 26.2925 25.0868 24.9715C23.3988 23.5036 23.8024 20.568 25.4904 19.0634C27.2151 17.5589 29.8572 17.6323 31.4718 19.2836C33.0865 20.9349 33.2332 23.7605 31.4718 25.1916C30.1141 26.2925 29.8205 27.5035 30.0407 28.9713C30.5911 32.4941 29.4169 35.2096 26.5913 37.3379C25.1235 38.4388 23.9492 39.6865 24.1694 42.035C24.3896 44.2367 22.1511 45.888 19.876 45.8146C17.5275 45.7413 15.7294 43.8698 15.7294 41.5579C15.7294 39.2828 17.4174 37.1544 19.6558 37.3379C23.4355 37.6315 24.4996 34.3656 26.5179 32.4574C27.0684 31.9436 26.7014 30.4758 26.7748 29.4483Z" fill="#FCA311"></path>
<path d="M77.4516 22.733C77.9654 23.5036 78.369 24.421 79.0295 25.0448C80.8276 26.7696 81.0478 29.485 79.4332 31.2831C77.8186 33.0445 74.8829 33.1179 73.1949 31.4299C71.4702 29.7052 71.4335 26.8062 73.3784 25.265C74.516 24.3843 74.8095 23.3935 74.6628 22.1459C74.4059 20.201 74.9196 18.6231 76.5342 17.302C76.9746 16.9351 77.1214 15.9443 77.0847 15.2471C77.0113 13.082 78.369 11.0638 80.4607 10.5867C82.589 10.1097 84.644 11.2105 85.488 13.3022C86.2586 15.2471 85.5247 17.4855 83.6532 18.513C82.9927 18.88 82.1487 19.0634 81.3781 19.0634C78.6626 19.1368 77.8553 19.9074 77.4516 22.733Z" fill="#FCA311"></path>
</svg><style>@media (prefers-color-scheme: light) { :root { filter: none; } }
</style></svg>