<svg width="27" height="27" viewBox="0 0 27 27" fill="none" xmlns="http://www.w3.org/2000/svg">
<path id="instagram" fill-rule="evenodd" clip-rule="evenodd" d="M6.21462 0.0338037C5.35714 0.10874 4.6378 0.31788 3.80442 0.734566C3.00659 1.13355 2.60266 1.42697 1.98066 2.05934C0.829739 3.22951 0.188571 4.63895 0.0513537 6.30031C-0.0171179 7.12928 -0.0171179 19.8758 0.0513537 20.7048C0.189119 22.3732 0.831601 23.7813 1.98899 24.9515C2.78721 25.7586 3.66079 26.3047 4.72413 26.6615C5.78117 27.0162 5.35692 26.9999 13.5 26.9999C21.6431 26.9999 21.2188 27.0162 22.2759 26.6615C23.3392 26.3047 24.2128 25.7586 25.011 24.9515C26.1684 23.7813 26.8109 22.3732 26.9486 20.7048C27.0171 19.8758 27.0171 7.12928 26.9486 6.30031C26.8114 4.63895 26.1703 3.22951 25.0193 2.05934C24.0444 1.06801 22.9382 0.46088 21.4975 0.126223C21.0126 0.0136265 20.8858 0.0115375 13.8561 0.00125647C9.92441 -0.00451632 6.48577 0.0101628 6.21462 0.0338037ZM21.3058 2.31966C22.1581 2.55184 22.9103 2.97655 23.4547 3.53294C23.867 3.9543 24.0106 4.15354 24.2651 4.6572C24.5417 5.20474 24.6857 5.67113 24.7551 6.2439C24.8321 6.87923 24.8321 20.1259 24.7551 20.7612C24.6857 21.334 24.5417 21.8004 24.2651 22.3479C24.0106 22.8516 23.867 23.0508 23.4547 23.4722C22.8874 24.0519 22.0753 24.4981 21.2236 24.6979C20.8071 24.7956 20.4239 24.8007 13.5 24.8007C6.5761 24.8007 6.19287 24.7956 5.7764 24.6979C4.67702 24.44 3.63215 23.7496 3.05162 22.8976C2.78299 22.5033 2.47136 21.8085 2.33946 21.3096L2.21588 20.8422V13.5025V6.16286L2.33946 5.69554C2.47136 5.1966 2.78299 4.50178 3.05162 4.10752C3.73693 3.10168 4.96718 2.38954 6.32417 2.21317C6.41456 2.2014 9.72995 2.19541 13.6917 2.19975C20.7531 2.20756 20.903 2.20993 21.3058 2.31966ZM20.2334 4.65407C19.1303 5.08005 18.8356 6.50505 19.6793 7.33396C20.0154 7.66411 20.3725 7.81014 20.8402 7.80854C21.326 7.80684 21.6537 7.65191 22.0182 7.25155C22.4839 6.74014 22.5858 6.10837 22.3003 5.50262C21.9265 4.70965 21.0362 4.3441 20.2334 4.65407ZM12.9248 6.80397C11.6141 6.90496 10.1561 7.52771 9.10998 8.43332C8.37197 9.07223 7.63669 10.0931 7.27615 10.9795C6.66987 12.47 6.66922 14.5336 7.27462 16.0219C7.63489 16.9075 8.35953 17.9157 9.09492 18.5546C10.7687 20.0087 13.0537 20.5614 15.1433 20.0174C15.7558 19.858 16.7369 19.4083 17.3176 19.0209C18.1268 18.4809 19.0781 17.3673 19.566 16.3889C20.2567 15.0036 20.3748 12.8575 19.8456 11.3081C19.5379 10.4075 18.9345 9.46237 18.2064 8.74088C17.644 8.1835 17.1972 7.86583 16.4443 7.48807C15.3104 6.91915 14.2089 6.70506 12.9248 6.80397ZM14.6077 9.10539C16.2202 9.51174 17.4832 10.7823 17.913 12.4305C18.0717 13.0391 18.0717 13.966 17.913 14.5746C17.4823 16.2262 16.2417 17.4728 14.5955 17.9083C13.9849 18.0698 13.0151 18.0698 12.4045 17.9083C10.3547 17.3661 8.97233 15.5915 8.97233 13.5025C8.97233 11.2268 10.6051 9.35252 12.8974 8.99686C13.343 8.92775 14.0913 8.9752 14.6077 9.10539Z" fill="#F9FFFE"/>
</svg>
