<svg width="437" height="117" viewBox="0 0 437 117" fill="none" xmlns="http://www.w3.org/2000/svg">
<path d="M77.2314 59.2086C80.0937 62.0342 82.6257 64.6029 85.2311 67.0615C85.6348 67.4285 86.4788 67.4652 87.1026 67.4652C90.8456 67.5019 94.5518 67.3918 98.2948 67.5386C99.2489 67.5752 100.423 68.0523 101.12 68.6761C103.249 70.5843 105.23 72.676 107.249 74.7309C107.909 75.4281 108.496 75.8318 109.597 75.5382C111.322 75.0979 112.863 75.685 113.927 77.1895C114.991 78.6574 115.065 80.272 114.184 81.8499C113.267 83.4278 111.836 84.0149 110.037 84.0149C109.23 84.0149 108.276 84.3452 107.689 84.8956C105.707 86.6937 103.909 88.712 101.928 90.5468C101.267 91.1339 100.276 91.5743 99.4324 91.611C96.2031 91.7211 92.9372 91.5743 89.708 91.7211C88.7906 91.7578 87.9099 92.4183 86.9925 92.8219C86.9558 92.8586 86.9191 92.8953 86.8457 92.932C84.9742 94.8402 82.3322 96.4915 81.4148 98.7666C80.4607 101.262 81.0845 104.418 81.1212 107.28C81.1212 107.904 81.5248 108.638 82.0019 109.078C84.0935 110.986 84.3871 113.665 82.6257 115.573C80.9744 117.371 78.0754 117.408 76.3874 115.683C74.5893 113.812 74.8095 111.133 76.8278 109.188C77.3415 108.674 77.7452 107.794 77.7819 107.06C77.892 104.234 77.7452 101.445 77.8553 98.6199C77.892 97.8492 78.2589 96.9685 78.7727 96.4181C81.0478 94.0329 83.3596 91.6844 85.7816 89.4092C86.3687 88.8588 87.3228 88.4551 88.1301 88.4184C91.3593 88.3083 94.6252 88.4551 97.8545 88.345C98.7719 88.3084 99.7993 87.8313 100.533 87.2075C101.964 85.9965 103.249 84.5654 104.57 83.2443C106.918 80.9325 106.955 79.0977 104.606 76.8226C102.625 74.841 100.9 72.1622 98.4783 71.1347C96.0564 70.1439 92.9372 71.0246 90.1483 70.7311C86.809 70.3641 84.2036 71.2448 82.2588 73.997C81.8551 74.5841 81.268 75.0979 80.7175 75.5749C79.7267 76.3822 79.2497 77.2629 79.3965 78.6941C79.6534 81.1527 77.4883 83.2076 75.0664 83.1342C72.6078 83.0609 70.6996 80.9692 70.8464 78.5473C71.0299 76.052 73.0848 74.364 75.6168 74.474C76.3507 74.5107 77.2314 74.2172 77.8186 73.7401C79.4699 72.3824 80.9744 70.8779 82.6991 69.2266C79.9836 66.5845 77.5617 64.1625 75.0664 61.8507C74.6994 61.4838 73.9655 61.337 73.4151 61.337C69.6721 61.3003 65.9658 61.2636 62.2229 61.337C61.599 61.337 60.8651 61.7406 60.4248 62.2177C58.5533 64.3093 55.8011 64.6029 53.9296 62.8415C52.1315 61.1535 52.1315 58.2912 53.8562 56.6032C55.7644 54.7317 58.4432 55.0253 60.4615 57.227C60.8651 57.6674 61.5624 57.9977 62.1128 58.0343C65.6723 58.1077 69.1951 58.1077 72.7546 58.0343C73.4518 58.0343 74.149 57.4839 74.8462 57.1903C74.9563 57.1537 75.0297 57.0436 75.1031 56.9335C78.0021 52.7502 81.9285 51.3557 86.9191 52.0162C89.8181 52.3832 92.7904 52.163 95.7261 52.0529C96.6068 52.0162 97.5609 51.5392 98.2581 50.9888C99.6526 49.8145 100.864 48.4201 102.185 47.1357C103.469 45.8514 104.68 44.7505 104.46 42.5487C104.24 40.2736 106.588 38.6223 108.937 38.7691C111.285 38.9159 112.973 40.7873 112.9 43.1726C112.826 45.5211 110.955 47.5394 108.643 47.2458C107.028 47.0623 106.148 47.7228 105.194 48.7136C103.322 50.6585 101.451 52.5667 99.4691 54.3648C98.8819 54.9152 97.8912 55.3189 97.0838 55.3189C92.7537 55.429 88.387 55.4656 84.0569 55.3189C82.0386 55.2455 80.5341 55.7225 79.3231 57.3738C78.9561 57.961 78.1855 58.438 77.2314 59.2086Z" fill="#FCA311"/>
<path d="M57.3424 3.24757C48.7189 3.24757 40.0954 3.21088 31.4718 3.28427C30.5178 3.28427 29.3435 3.76131 28.6463 4.42184C24.4997 8.42168 20.4631 12.4949 16.4633 16.6048C15.8762 17.192 15.4725 18.2561 15.4725 19.1001C15.4358 21.8523 13.7845 23.7605 11.2158 23.7972C8.68378 23.8339 6.8123 21.8523 6.88569 19.357C6.95908 16.7883 8.97735 15.1737 11.7295 15.2104C12.4634 15.2104 13.4175 14.9168 13.9313 14.4031C18.3715 10.0363 22.775 5.52271 27.2885 1.15592C27.9491 0.532088 29.0499 0.0550436 29.9673 0.0550436C48.2418 -0.0183479 66.5163 -0.0183479 84.8275 0.0550436C85.6715 0.0550436 86.7357 0.495393 87.3595 1.08252C90.6254 4.20166 93.7445 7.46759 97.0105 10.6234C97.5609 11.1739 98.5517 11.5408 99.3223 11.5408C102.038 11.5041 104.056 13.1921 104.093 15.7608C104.166 18.2194 102.185 20.201 99.6893 20.1643C97.0839 20.1276 95.3592 17.9993 95.506 15.2104C95.5426 14.5866 95.2858 13.7793 94.8454 13.3389C91.8731 10.2565 88.864 7.21072 85.7449 4.27506C85.1577 3.72462 84.167 3.39436 83.323 3.39436C74.6994 3.24757 66.0026 3.24757 57.3424 3.24757Z" fill="#FCA311"/>
<path d="M127.284 51.9061C127.284 55.6491 127.211 59.3554 127.321 63.0983C127.358 64.4561 126.991 65.4469 125.963 66.2909C125.193 66.9147 124.459 67.5752 123.908 68.3825C123.431 69.1164 122.954 70.0338 122.954 70.8778C122.918 73.5566 121.156 75.5382 118.624 75.5382C116.056 75.5382 114.257 73.5566 114.368 70.8412C114.441 68.6761 112.79 67.0615 110.588 67.1349C107.982 67.2083 106.038 65.4469 105.964 62.9883C105.891 60.4929 107.836 58.5481 110.331 58.5848C112.79 58.6215 114.808 60.603 114.478 63.1717C114.184 65.2634 115.689 65.9606 116.789 66.9514C117.523 67.6119 120.679 66.8046 121.523 66.1441C123.505 64.5662 124.165 62.6947 124.092 60.126C123.872 54.0345 124.092 47.9063 123.982 41.7781C123.982 40.824 123.468 39.6498 122.808 38.9525C119.578 35.5398 116.239 32.2372 112.826 28.9713C112.203 28.3842 111.175 27.9805 110.294 27.9071C107.872 27.7603 105.414 27.8704 102.955 27.8704C101.157 27.8704 99.5425 27.7236 98.1113 29.5217C96.7169 31.2831 93.7078 30.8428 92.24 29.1548C90.6988 27.3934 90.8456 24.6045 92.607 23.0266C94.3317 21.5221 97.1206 21.5221 98.515 23.3201C99.3957 24.4577 100.35 24.6412 101.634 24.6412C105.01 24.6045 108.349 24.5678 111.725 24.6779C112.533 24.7146 113.524 25.0815 114.111 25.6687C118.221 29.6685 122.294 33.7417 126.294 37.8517C126.844 38.4388 127.248 39.4296 127.248 40.2369C127.358 44.0899 127.284 47.9797 127.284 51.9061Z" fill="#FCA311"/>
<path d="M35.5084 73.153C29.6371 74.7309 25.8574 71.7219 22.0777 67.6486C16.2064 61.2636 9.85805 55.3189 3.76655 49.154C3.17942 48.5301 2.73907 47.5027 2.70238 46.622C2.59229 43.5028 2.70238 40.3837 2.59229 37.2645C2.55559 36.4939 2.15194 35.5398 1.6015 34.9894C-0.343372 33.1546 -0.563546 30.5125 1.19785 28.6043C2.84916 26.8429 5.74812 26.8062 7.39943 28.5676C9.19753 30.4391 8.97735 33.1179 7.03247 34.9527C6.44534 35.5031 5.9683 36.4205 5.9316 37.1911C5.78482 39.8699 5.82152 42.5854 5.9316 45.2642C5.9683 46.0715 6.29856 47.0623 6.849 47.6494C13.8579 54.7317 20.8668 61.7773 27.9857 68.7862C28.6463 69.41 29.7471 69.8137 30.6645 69.8504C34.2607 69.9605 37.8569 69.8871 41.4898 69.9238C42.4806 69.9238 43.1411 69.7403 43.8016 68.8596C45.3795 66.7679 48.2785 66.6211 50.0766 68.3458C51.838 70.0339 51.838 72.8594 50.1133 74.5474C48.3519 76.3088 45.563 76.2721 43.9484 74.2906C43.1778 73.3732 42.4439 73.0796 41.3063 73.1163C39.3981 73.1897 37.4533 73.153 35.5084 73.153Z" fill="#FCA311"/>
<path d="M54.9571 16.1278C53.049 15.5773 51.3976 16.6048 50.0032 18.3295C49.2693 19.2102 48.3886 19.9808 47.5446 20.7881C46.407 21.8523 45.563 22.8064 45.7465 24.6779C46.0034 27.0264 43.7282 28.8979 41.343 28.7878C38.8844 28.641 37.1597 26.7329 37.2698 24.2742C37.3799 21.8523 39.3614 19.9441 41.7467 20.2377C43.031 20.3845 43.7649 19.9808 44.5722 19.1368C46.2602 17.3754 47.9483 15.614 49.783 13.9994C50.4436 13.4123 51.4343 13.0453 52.315 12.9353C53.5627 12.7518 54.8837 12.8986 56.1681 12.8986C57.7093 12.8986 59.1405 12.9353 60.4248 11.5408C61.966 9.88951 64.8283 10.3666 66.2961 12.1279C67.764 13.8893 67.6906 16.7149 65.8558 18.036C64.7182 18.88 64.4246 19.7974 64.6081 20.9716C65.2686 24.9715 63.9476 28.0906 60.645 30.4024C60.0212 30.8428 59.5441 31.54 58.957 32.0537C58.0763 32.8244 57.6726 33.5583 57.8194 34.8793C58.113 37.3379 56.0213 39.3562 53.5627 39.3929C51.2142 39.3929 49.1959 37.4113 49.1959 35.0995C49.2326 32.6042 51.361 30.5492 53.893 30.8428C55.1039 30.9896 55.8378 30.6593 56.5718 29.8153C57.4158 28.8612 58.2965 27.8704 59.2872 27.0998C60.9019 25.8155 61.4523 24.2742 61.3789 22.1826C61.2321 17.7057 59.7643 16.1278 54.9571 16.1278Z" fill="#FCA311"/>
<path d="M79.7268 40.7507C75.1398 39.6131 71.7638 41.5213 69.1951 45.1175C66.6264 48.6769 63.2871 49.8145 58.957 49.4476C54.5168 49.0806 50.0399 49.3742 45.563 49.3742C43.1778 49.3742 41.0127 51.6493 41.0861 53.9611C41.1595 56.5665 39.1779 58.6215 36.6826 58.5114C34.1873 58.438 32.3892 56.4197 32.536 53.8877C32.6828 51.4291 34.7745 49.7778 37.3065 49.8512C38.0771 49.8879 39.1779 49.5576 39.5816 49.0072C41.4898 46.5486 43.8383 45.8514 46.8841 45.9982C51.7646 46.255 56.6451 46.0348 61.5624 46.0715C62.9201 46.0715 63.9843 45.778 64.9384 44.7138C66.9199 42.5488 69.0116 40.4938 71.1766 38.5122C71.7638 37.9618 72.7546 37.5581 73.5619 37.5214C77.1581 37.4113 80.7909 37.5214 84.3871 37.4113C85.2311 37.3746 86.2219 36.9343 86.809 36.3472C88.6438 34.4757 91.396 34.2555 93.1941 35.9802C94.9555 37.7049 94.9555 40.5305 93.1574 42.2185C91.3226 43.9432 88.5704 43.6863 86.7723 41.8148C86.2219 41.2644 85.3045 40.8607 84.5339 40.7874C82.9193 40.6406 81.3414 40.7507 79.7268 40.7507Z" fill="#FCA311"/>
<path d="M56.425 82.6205C53.6728 83.1709 51.6178 81.4095 51.5077 78.9142C51.3976 76.4923 53.3792 74.3639 55.8011 74.4006C58.2598 74.4006 60.278 76.3822 60.0578 78.9142C59.9478 80.272 60.4248 81.0426 61.3055 81.9233C64.0577 84.6021 66.7732 87.3542 69.452 90.1431C69.929 90.6569 70.2593 91.5009 70.296 92.1981C70.406 94.5099 70.3327 96.8584 70.3327 99.1703C70.3327 100.968 70.1492 102.583 71.9473 104.014C73.7821 105.482 73.2316 108.454 71.3601 109.996C69.5987 111.427 66.9566 111.206 65.4154 109.445C63.9109 107.72 63.9476 104.932 65.7457 103.537C66.8833 102.656 67.1034 101.702 67.0667 100.418C66.9933 97.7391 67.6906 94.7668 66.7365 92.455C65.7824 90.1431 63.177 88.5285 61.3055 86.6203C60.4248 85.7029 59.5441 84.7488 58.5533 83.9048C57.9662 83.3544 57.1589 83.0241 56.425 82.6205Z" fill="#FCA311"/>
<path d="M26.7748 29.4483C26.9216 27.6869 26.5913 26.2925 25.0868 24.9714C23.3988 23.5036 23.8024 20.568 25.4904 19.0634C27.2151 17.5589 29.8572 17.6323 31.4718 19.2836C33.0865 20.9349 33.2332 23.7605 31.4718 25.1916C30.1141 26.2925 29.8205 27.5035 30.0407 28.9713C30.5912 32.4941 29.4169 35.2096 26.5913 37.3379C25.1235 38.4388 23.9492 39.6864 24.1694 42.035C24.3896 44.2367 22.1511 45.888 19.876 45.8146C17.5275 45.7412 15.7294 43.8698 15.7294 41.5579C15.7294 39.2828 17.4174 37.1544 19.6558 37.3379C23.4355 37.6315 24.4997 34.3656 26.5179 32.4574C27.0684 31.9436 26.7014 30.4758 26.7748 29.4483Z" fill="#FCA311"/>
<path d="M77.4516 22.733C77.9654 23.5036 78.369 24.421 79.0296 25.0449C80.8276 26.7696 81.0478 29.485 79.4332 31.2831C77.8186 33.0445 74.8829 33.1179 73.1949 31.4299C71.4702 29.7052 71.4335 26.8063 73.3784 25.265C74.516 24.3843 74.8095 23.3935 74.6628 22.1459C74.4059 20.201 74.9196 18.6231 76.5342 17.3021C76.9746 16.9351 77.1214 15.9443 77.0847 15.2471C77.0113 13.082 78.369 11.0638 80.4607 10.5867C82.589 10.1097 84.644 11.2106 85.488 13.3022C86.2586 15.2471 85.5247 17.4855 83.6532 18.513C82.9927 18.88 82.1487 19.0634 81.3781 19.0634C78.6626 19.1368 77.8553 19.9074 77.4516 22.733Z" fill="#FCA311"/>
<path d="M148.348 50.2181V20.0909H154.843L164.787 32.1638L174.732 20.0909H181.227V50.2181H173.521V32.2739L165.301 42.0349H164.347L156.054 32.2739V50.2181H148.348Z" fill="#EFEFEF"/>
<path d="M202.621 50.2181L202.07 48.2366C200.676 49.631 198.694 50.6952 195.612 50.6952C189.887 50.6952 185.704 45.9247 185.704 39.5764C185.704 33.228 189.887 28.4942 195.612 28.4942C198.694 28.4942 200.639 29.485 202.07 30.9895L202.621 28.9346H209.079V50.2548H202.621V50.2181ZM201.96 39.5397C201.96 36.8609 200.126 34.8426 197.52 34.8426C194.841 34.8426 193.007 36.8242 193.007 39.5397C193.007 42.3285 194.841 44.3101 197.52 44.3101C200.126 44.3101 201.96 42.2918 201.96 39.5397Z" fill="#EFEFEF"/>
<path d="M219.354 43.0258C219.611 44.7871 220.932 45.4844 222.436 45.4844C223.721 45.4844 224.858 45.044 224.858 43.8331C224.858 42.512 223.17 42.3285 220.785 41.8515C217.226 41.1176 212.786 40.2002 212.786 35.4297C212.786 30.4758 217.556 28.4942 221.959 28.4942C226.51 28.4942 230.95 30.9162 231.17 35.76H224.455C224.235 34.4022 223.06 33.6316 221.629 33.6316C220.418 33.6316 219.354 34.1454 219.354 35.1362C219.354 36.237 220.822 36.4572 223.207 36.971C226.987 37.7049 231.61 38.6223 231.61 43.6863C231.61 48.7136 226.693 50.7686 222.033 50.7686C217.262 50.7686 212.602 48.3466 212.419 43.0624H219.354V43.0258Z" fill="#EFEFEF"/>
<path d="M232.931 28.8979H236.674V23.2101L244.124 22.0358V28.8979H249.775V35.0261H244.124V41.0075C244.124 43.2459 245.812 44.0166 247.903 44.0166C248.417 44.0166 249.041 43.9799 249.591 43.8331V50.3649C248.601 50.5851 247.169 50.7319 246.142 50.7319C240.491 50.7319 236.601 47.8696 236.601 41.6313V35.0261H232.968V28.8979H232.931Z" fill="#EFEFEF"/>
<path d="M259.096 41.1543C259.499 43.3927 260.857 44.9706 263.609 44.9706C265.15 44.9706 266.618 44.3468 267.242 43.0624H274.288C272.82 47.7962 268.71 50.6585 263.389 50.6585C256.307 50.6585 251.94 45.8146 251.94 39.5764C251.94 33.3014 256.453 28.4942 263.462 28.4942C270.141 28.4942 274.581 33.0078 274.581 39.3195C274.581 39.9433 274.544 40.5304 274.434 41.191H259.096V41.1543ZM267.315 37.2645C266.985 35.2829 265.15 34.1821 263.279 34.1821C261.004 34.1821 259.719 35.4664 259.206 37.2645H267.315Z" fill="#EFEFEF"/>
<path d="M277.994 50.2181V28.8979H284.746L285.186 32.384C286.214 29.7786 288.489 28.3842 291.645 28.3842C292.195 28.3842 292.782 28.4575 293.002 28.5676V35.6132C292.819 35.5398 292.085 35.3563 291.314 35.3563C287.425 35.3563 285.517 37.8517 285.517 42.0717V50.2181H277.994Z" fill="#EFEFEF"/>
<path d="M296.929 50.2181V20.0909H303.424L313.369 32.1638L323.313 20.0909H329.808V50.2181H322.102V32.2739L313.882 42.0349H312.928L304.635 32.2739V50.2181H296.929Z" fill="#EFEFEF"/>
<path d="M335.349 22.2193C335.349 19.8707 337.258 18.0359 339.679 18.0359C342.028 18.0359 344.01 19.8707 344.01 22.2193C344.01 24.5678 342.065 26.4393 339.679 26.4393C337.258 26.4393 335.349 24.6045 335.349 22.2193ZM335.863 50.2181V28.8979H343.496V50.2181H335.863Z" fill="#EFEFEF"/>
<path d="M348.45 28.8979H355.055L355.605 31.173C356.706 29.6685 359.055 28.3842 361.88 28.3842C367.275 28.3842 370.467 31.6868 370.467 37.1544V50.1814H362.871V38.8424C362.871 36.3838 361.697 35.0995 359.679 35.0995C357.697 35.0995 356.082 36.4572 356.046 38.7324V50.1814H348.45V28.8979Z" fill="#EFEFEF"/>
<path d="M390.503 50.2181L389.989 48.0531C388.778 49.5209 386.54 50.6952 383.457 50.6952C377.733 50.6952 373.55 45.9247 373.55 39.5764C373.55 33.228 377.733 28.4942 383.457 28.4942C386.577 28.4942 388.448 29.6318 389.622 31.0996V18.9533H397.255V50.2181H390.503ZM389.732 39.5397C389.732 36.8242 387.861 34.8426 385.292 34.8426C382.65 34.8426 380.852 36.7875 380.852 39.5397C380.852 42.2918 382.687 44.2734 385.292 44.2734C387.934 44.2734 389.732 42.2551 389.732 39.5397Z" fill="#EFEFEF"/>
<path d="M146.66 65.1899C146.66 59.6122 150.806 55.539 156.384 55.539C162.072 55.539 166.182 59.6122 166.182 65.1899C166.182 70.7677 162.072 74.6941 156.384 74.6941C150.806 74.6941 146.66 70.7677 146.66 65.1899ZM163.503 65.1532C163.503 60.9699 160.604 57.9609 156.384 57.9609C152.274 57.9609 149.375 60.9699 149.375 65.1532C149.375 69.41 152.274 72.2722 156.384 72.2722C160.604 72.2722 163.503 69.41 163.503 65.1532Z" fill="#EFEFEF"/>
<path d="M178.035 68.7861C178.108 71.0613 180.126 72.3089 182.622 72.3089C184.933 72.3089 186.915 71.1714 186.915 69.1531C186.915 66.8413 183.979 66.3275 182.071 65.9239C179.062 65.2266 175.686 64.4193 175.686 60.6764C175.686 57.4471 178.328 55.5023 182.365 55.5023C186.401 55.5023 188.86 57.5939 188.97 60.9332H186.401C186.328 58.8783 184.566 57.7774 182.328 57.7774C180.126 57.7774 178.292 58.7315 178.292 60.603C178.292 62.8047 181.337 63.2818 182.989 63.6487C186.108 64.346 189.557 65.2266 189.557 69.043C189.557 72.6392 186.475 74.6575 182.622 74.6575C178.402 74.6575 175.503 72.3823 175.393 68.7494H178.035V68.7861Z" fill="#EFEFEF"/>
<path d="M194.474 68.4926C194.731 70.8044 196.272 72.419 198.841 72.419C200.492 72.419 201.777 71.6851 202.547 70.2907H205.116C204.235 73.0061 201.703 74.6941 198.621 74.6941C194.291 74.6941 191.979 71.3915 191.979 67.832C191.979 64.2725 194.364 60.9699 198.658 60.9699C202.658 60.9699 205.3 63.6854 205.3 67.5018C205.3 67.8687 205.263 68.199 205.226 68.5293H194.474V68.4926ZM202.841 66.6945C202.694 64.4927 200.749 63.1717 198.731 63.1717C196.383 63.1717 194.915 64.6762 194.548 66.6945H202.841Z" fill="#EFEFEF"/>
<path d="M219.648 61.2635H221.813V73.1529C221.813 77.5197 219.244 80.1618 214.987 80.1618C211.575 80.1618 209.116 78.4004 208.382 75.4281H210.841C211.428 77.0427 213.116 77.9968 214.951 77.9968C217.556 77.9968 219.317 76.3454 219.317 73.4465V72.3823C218.363 73.74 216.675 74.6941 214.4 74.6941C210.657 74.6941 207.758 71.7585 207.758 67.7586C207.758 63.7588 210.657 60.9699 214.4 60.9699C216.675 60.9699 218.29 61.8873 219.317 63.2818L219.648 61.2635ZM219.354 67.7586C219.354 65.1899 217.409 63.1717 214.767 63.1717C212.088 63.1717 210.29 65.1899 210.29 67.7586C210.29 70.364 212.088 72.4924 214.767 72.4924C217.409 72.5291 219.354 70.4007 219.354 67.7586Z" fill="#EFEFEF"/>
<path d="M226.143 74.4373V61.2635H228.308L228.528 63.8322C229.189 62.0708 230.803 61.0066 232.895 61.0066C233.262 61.0066 233.629 61.08 233.849 61.1167V63.3185C233.665 63.2818 233.409 63.2451 233.188 63.2451C230.473 63.2451 228.601 65.1533 228.601 67.9788V74.474H226.143V74.4373Z" fill="#EFEFEF"/>
<path d="M237.739 68.4926C237.996 70.8044 239.537 72.419 242.105 72.419C243.757 72.419 245.041 71.6851 245.812 70.2907H248.38C247.5 73.0061 244.968 74.6941 241.885 74.6941C237.555 74.6941 235.243 71.3915 235.243 67.832C235.243 64.2725 237.629 60.9699 241.922 60.9699C245.922 60.9699 248.564 63.6854 248.564 67.5018C248.564 67.8687 248.527 68.199 248.491 68.5293H237.739V68.4926ZM246.105 66.6945C245.959 64.4927 244.014 63.1717 241.995 63.1717C239.647 63.1717 238.179 64.6762 237.812 66.6945H246.105Z" fill="#EFEFEF"/>
<path d="M262.655 74.4373L262.582 72.419C261.554 73.7768 259.94 74.7308 257.664 74.7308C253.885 74.7308 251.023 71.7952 251.023 67.7954C251.023 63.7955 253.885 61.0066 257.664 61.0066C259.94 61.0066 261.554 61.924 262.582 63.3185V55.1353H265.04V74.4373H262.655ZM262.582 67.7587C262.582 65.1899 260.6 63.1717 257.958 63.1717C255.279 63.1717 253.481 65.1899 253.481 67.7587C253.481 70.3641 255.316 72.4924 257.958 72.4924C260.637 72.5291 262.582 70.4007 262.582 67.7587Z" fill="#EFEFEF"/>
<path d="M275.462 60.9699C279.462 60.9699 282.434 63.979 282.434 67.832C282.434 71.6851 279.462 74.6941 275.462 74.6941C271.462 74.6941 268.453 71.6851 268.453 67.832C268.416 63.979 271.425 60.9699 275.462 60.9699ZM280.012 67.8687C280.012 65.2633 278.067 63.2818 275.462 63.2818C272.82 63.2818 270.875 65.2633 270.875 67.8687C270.875 70.4374 272.82 72.4557 275.462 72.4557C278.067 72.419 280.012 70.4374 280.012 67.8687Z" fill="#EFEFEF"/>
<path d="M303.094 74.4373L303.02 72.419C301.993 73.7768 300.378 74.7308 298.103 74.7308C294.323 74.7308 291.461 71.7952 291.461 67.7954C291.461 63.7955 294.323 61.0066 298.103 61.0066C300.378 61.0066 301.993 61.924 303.02 63.3185V55.1353H305.479V74.4373H303.094ZM303.057 67.7587C303.057 65.1899 301.076 63.1717 298.433 63.1717C295.755 63.1717 293.957 65.1899 293.957 67.7587C293.957 70.3641 295.791 72.4924 298.433 72.4924C301.112 72.5291 303.057 70.4007 303.057 67.7587Z" fill="#EFEFEF"/>
<path d="M315.901 60.9699C319.9 60.9699 322.873 63.979 322.873 67.832C322.873 71.6851 319.9 74.6941 315.901 74.6941C311.901 74.6941 308.892 71.6851 308.892 67.832C308.892 63.979 311.901 60.9699 315.901 60.9699ZM320.451 67.8687C320.451 65.2633 318.506 63.2818 315.901 63.2818C313.259 63.2818 311.314 65.2633 311.314 67.8687C311.314 70.4374 313.259 72.4557 315.901 72.4557C318.506 72.419 320.451 70.4374 320.451 67.8687Z" fill="#EFEFEF"/>
<path d="M334.615 68.7861C334.689 71.0613 336.707 72.3089 339.202 72.3089C341.514 72.3089 343.496 71.1714 343.496 69.1531C343.496 66.8413 340.56 66.3275 338.652 65.9239C335.643 65.2266 332.267 64.4193 332.267 60.6764C332.267 57.4471 334.909 55.5023 338.946 55.5023C342.982 55.5023 345.441 57.5939 345.551 60.9332H342.982C342.909 58.8783 341.147 57.7774 338.909 57.7774C336.707 57.7774 334.872 58.7315 334.872 60.603C334.872 62.8047 337.918 63.2818 339.569 63.6487C342.689 64.346 346.138 65.2266 346.138 69.043C346.138 72.6392 343.055 74.6575 339.202 74.6575C334.982 74.6575 332.083 72.3823 331.973 68.7494H334.615V68.7861Z" fill="#EFEFEF"/>
<path d="M358.908 61.2635H361.33V69.0797C361.33 72.3823 358.908 74.6942 355.349 74.6942C351.752 74.6942 349.367 72.4557 349.367 69.1531V61.2635H351.789V68.7127C351.789 70.9512 353.22 72.419 355.349 72.419C357.477 72.419 358.908 70.9512 358.908 68.7127V61.2635Z" fill="#EFEFEF"/>
<path d="M377.916 69.7769C377.219 72.786 374.577 74.7308 371.421 74.7308C367.568 74.7308 364.559 71.7952 364.559 67.8687C364.559 63.9423 367.605 61.0066 371.421 61.0066C374.357 61.0066 377.329 62.8414 377.88 65.8505H375.421C374.761 64.2726 373.256 63.2451 371.421 63.2451C368.926 63.2451 366.981 65.3 366.981 67.8687C366.981 70.4741 368.963 72.5291 371.421 72.5291C373.256 72.5291 374.687 71.5016 375.421 69.8136H377.916V69.7769Z" fill="#EFEFEF"/>
<path d="M382.687 68.4926C382.944 70.8044 384.485 72.419 387.054 72.419C388.705 72.419 389.989 71.6851 390.76 70.2907H393.329C392.448 73.0061 389.916 74.6941 386.834 74.6941C382.503 74.6941 380.192 71.3915 380.192 67.832C380.192 64.2725 382.577 60.9699 386.87 60.9699C390.87 60.9699 393.512 63.6854 393.512 67.5018C393.512 67.8687 393.475 68.199 393.439 68.5293H382.687V68.4926ZM391.054 66.6945C390.907 64.4927 388.962 63.1717 386.944 63.1717C384.595 63.1717 383.127 64.6762 382.76 66.6945H391.054Z" fill="#EFEFEF"/>
<path d="M398.246 70.1072C398.429 71.7218 399.971 72.5658 401.548 72.5658C402.98 72.5658 404.374 71.942 404.374 70.6943C404.374 69.3366 402.87 68.9696 400.888 68.6394C398.76 68.2724 396.301 67.7587 396.301 65.0065C396.301 62.3277 398.87 61.0066 401.438 61.0066C404.044 61.0066 406.502 62.4378 406.649 65.3H404.337C404.191 63.9056 402.796 63.0983 401.328 63.0983C400.007 63.0983 398.686 63.7221 398.686 64.823C398.686 65.7771 399.604 66.1807 401.585 66.5477C403.97 66.9513 406.906 67.3183 406.906 70.4007C406.906 73.2263 404.117 74.7308 401.365 74.7308C398.539 74.7308 396.044 73.1162 396.007 70.1072H398.246Z" fill="#EFEFEF"/>
<path d="M411.603 70.1072C411.787 71.7218 413.328 72.5658 414.906 72.5658C416.337 72.5658 417.731 71.942 417.731 70.6943C417.731 69.3366 416.227 68.9696 414.245 68.6394C412.117 68.2724 409.658 67.7587 409.658 65.0065C409.658 62.3277 412.227 61.0066 414.796 61.0066C417.401 61.0066 419.86 62.4378 420.006 65.3H417.695C417.548 63.9056 416.153 63.0983 414.686 63.0983C413.365 63.0983 412.044 63.7221 412.044 64.823C412.044 65.7771 412.961 66.1807 414.942 66.5477C417.328 66.9513 420.263 67.3183 420.263 70.4007C420.263 73.2263 417.474 74.7308 414.722 74.7308C411.897 74.7308 409.401 73.1162 409.365 70.1072H411.603Z" fill="#EFEFEF"/>
<path d="M429.731 60.9699C433.731 60.9699 436.703 63.979 436.703 67.832C436.703 71.6851 433.731 74.6941 429.731 74.6941C425.731 74.6941 422.722 71.6851 422.722 67.832C422.722 63.979 425.694 60.9699 429.731 60.9699ZM434.281 67.8687C434.281 65.2633 432.336 63.2818 429.731 63.2818C427.089 63.2818 425.144 65.2633 425.144 67.8687C425.144 70.4374 427.089 72.4557 429.731 72.4557C432.336 72.419 434.281 70.4374 434.281 67.8687Z" fill="#EFEFEF"/>
</svg>
