<svg width="17" height="15" viewBox="0 0 17 15" fill="none" xmlns="http://www.w3.org/2000/svg">
<path id="Vector" d="M8.94288 0.612664L8.94352 0.613974L10.9744 4.7202L11.0908 4.95572L11.3509 4.99337L15.8862 5.65014L15.8877 5.65035C15.9702 5.66205 16.032 5.71733 16.0541 5.78475C16.077 5.85465 16.0597 5.9294 16.0049 5.9836C16.0047 5.98378 16.0045 5.98396 16.0043 5.98414L12.7168 9.18517L12.5283 9.36867L12.5728 9.62794L13.3482 14.1489C13.3483 14.1489 13.3483 14.149 13.3483 14.1491C13.36 14.2187 13.3322 14.2926 13.2654 14.3398C13.1975 14.3878 13.1092 14.3926 13.0384 14.3553L13.0373 14.3547L8.98154 12.2275L8.74929 12.1057L8.51704 12.2275L4.46841 14.3512C4.46825 14.3513 4.46809 14.3514 4.46793 14.3514C4.39094 14.3913 4.30336 14.3829 4.24166 14.3387C4.17254 14.2892 4.14509 14.2125 4.15623 14.1462C4.15625 14.1461 4.15626 14.1461 4.15628 14.146L4.93176 9.62503L4.97625 9.36563L4.7876 9.1821L1.4986 5.98256L1.49744 5.98144C1.44489 5.93065 1.42673 5.85613 1.44986 5.78639C1.47114 5.72222 1.53333 5.66365 1.62071 5.64979L6.15364 4.99337L6.41368 4.95572L6.53016 4.7202L8.56001 0.61596C8.59606 0.545333 8.66794 0.5 8.75226 0.5C8.84032 0.5 8.91129 0.548315 8.94288 0.612664Z" fill="#FCA311" stroke="#FCA311"/>
</svg>
