<svg width="33" height="32" viewBox="0 0 33 32" fill="none" xmlns="http://www.w3.org/2000/svg">
<path id="whatsapp-svg" fill-rule="evenodd" clip-rule="evenodd" d="M14.7431 0.0821385C8.01297 1.00657 2.73122 5.93166 1.30577 12.6124C0.972471 14.1743 0.993804 17.1544 1.34982 18.7751C1.63305 20.064 2.30216 21.9192 2.84014 22.9069L3.1678 23.5084L1.83384 27.4735C1.10022 29.6544 0.5 31.5495 0.5 31.6851C0.5 31.8206 0.578431 31.9616 0.674306 31.9983C0.77018 32.0351 2.74276 31.4624 5.0578 30.7255L9.26687 29.3861L10.4364 29.8858C12.6226 30.82 14.3471 31.1712 16.7483 31.1712C21.1295 31.1712 24.8711 29.6391 27.9232 26.5956C30.9631 23.5642 32.5 19.8802 32.5 15.6246C32.5 11.4672 31.0899 7.92372 28.2417 4.92422C25.9513 2.51208 23.1509 0.958413 19.8255 0.254935C18.6747 0.0115397 15.9354 -0.0816301 14.7431 0.0821385ZM19.8255 3.5762C21.244 3.92819 23.4281 5.01589 24.5941 5.95097C26.2771 7.30062 27.7154 9.24101 28.4147 11.1052C29.1193 12.9836 29.1745 13.3075 29.1745 15.5593C29.1745 17.887 29.0263 18.6704 28.2337 20.5315C26.1856 25.341 20.7901 28.4861 15.5716 27.9123C13.8229 27.72 12.7051 27.3872 11.0665 26.5713L9.64861 25.8653L7.57614 26.5247C6.43619 26.8874 5.4792 27.16 5.44958 27.1303C5.41997 27.1007 5.70797 26.183 6.08971 25.091L6.78367 23.1055L6.16212 22.0911C4.85526 19.9586 4.32795 18.0554 4.33523 15.4966C4.339 14.1444 4.39735 13.5892 4.62474 12.7378C5.95594 7.75569 9.77448 4.23328 14.8094 3.34296C15.9152 3.14747 18.6008 3.27224 19.8255 3.5762ZM11.4365 8.41176C10.3821 8.64638 9.89282 9.04239 9.38596 10.0711C8.99807 10.8585 8.97084 10.9975 8.97498 12.1709C8.9805 13.7367 9.21103 14.3716 10.4417 16.2107C12.0041 18.5454 14.3127 20.7142 16.2742 21.6901C18.152 22.6241 20.412 23.2229 21.5192 23.0795C23.0137 22.886 24.4492 21.845 24.7865 20.7103C24.8878 20.3696 24.9706 19.8226 24.9706 19.4951C24.9706 18.7673 24.8994 18.71 22.7559 17.7115C21.326 17.0453 20.6869 16.8795 20.3902 17.0973C20.3212 17.1479 19.9864 17.528 19.6462 17.9418C19.306 18.3556 18.9843 18.7446 18.9315 18.8063C18.6923 19.0858 16.7899 17.9412 15.5192 16.7534C15.0571 16.3216 14.4246 15.6299 14.1136 15.2164L13.548 14.4644L13.9815 13.9848C14.5189 13.3905 14.8059 12.8489 14.8059 12.429C14.8059 12.0283 13.4879 8.86558 13.1984 8.57139C12.8909 8.25903 12.3451 8.20962 11.4365 8.41176Z" fill="#E5E5E5"/>
</svg>
